<?xml version="1.0" standalone="no"?>
<!DOCTYPE svg PUBLIC "-//W3C//DTD SVG 20010904//EN"
 "http://www.w3.org/TR/2001/REC-SVG-20010904/DTD/svg10.dtd">
<svg version="1.0" xmlns="http://www.w3.org/2000/svg"
 width="700.000000pt" height="700.000000pt" viewBox="0 0 700.000000 700.000000"
 preserveAspectRatio="xMidYMid meet">

<g transform="translate(0.000000,700.000000) scale(0.100000,-0.100000)"
fill="#000000" stroke="none">
<path d="M3330 6430 c-389 -25 -752 -150 -1108 -384 -293 -192 -501 -396 -689
-676 -159 -237 -295 -610 -345 -945 -17 -115 -16 -487 1 -615 26 -195 107
-508 211 -819 26 -79 27 -86 13 -120 -9 -20 -28 -76 -43 -126 -15 -49 -45
-135 -68 -190 -23 -55 -61 -156 -85 -225 -24 -69 -65 -170 -90 -225 -25 -55
-62 -148 -82 -207 -36 -107 -39 -147 -9 -149 8 -1 20 -2 27 -3 21 -3 247 86
397 157 41 19 103 47 137 61 74 31 135 59 298 136 l122 57 35 -31 c152 -135
342 -213 649 -268 175 -31 196 -33 424 -32 297 0 395 13 715 94 359 90 669
242 945 463 183 146 414 390 522 552 68 102 190 332 242 459 107 261 149 532
130 843 -21 365 -84 643 -196 866 -50 101 -259 447 -311 515 -71 94 -238 276
-307 334 -227 192 -489 326 -810 417 -209 58 -450 79 -725 61z m473 -145 c298
-44 587 -157 822 -320 152 -107 221 -169 341 -307 107 -124 136 -165 263 -375
100 -167 161 -283 197 -378 103 -277 153 -791 104 -1080 -41 -240 -66 -314
-187 -556 -92 -183 -185 -324 -304 -459 -351 -399 -750 -642 -1266 -770 -242
-60 -338 -72 -603 -77 -244 -5 -246 -5 -445 30 -155 27 -227 45 -323 80 -120
45 -148 61 -280 168 -91 73 -91 73 -158 38 -73 -37 -224 -106 -459 -211 -249
-111 -296 -130 -302 -124 -3 3 9 34 27 68 35 70 36 71 113 283 30 83 72 195
95 250 43 108 110 303 119 347 3 15 -8 65 -25 120 -67 205 -92 286 -111 363
-11 44 -31 123 -45 175 -51 193 -61 284 -61 575 0 330 18 448 104 695 141 404
335 686 651 950 83 69 121 96 304 215 234 152 573 271 866 304 131 15 451 12
563 -4z"/>
<path d="M4412 5138 c-18 -18 -16 -34 43 -318 58 -278 149 -757 161 -850 11
-84 65 -122 105 -74 17 21 8 83 -65 469 -104 547 -147 749 -164 768 -17 20
-62 23 -80 5z"/>
<path d="M2632 5073 c-24 -24 -25 -28 -19 -121 3 -54 15 -162 26 -242 11 -80
34 -246 51 -370 17 -124 38 -259 46 -300 13 -68 13 -76 -2 -87 -27 -20 -135
-52 -184 -55 l-44 -3 -61 360 c-34 198 -70 403 -79 455 -9 52 -20 135 -23 184
-5 68 -11 94 -25 108 -40 40 -79 12 -85 -63 -5 -61 -1 -91 95 -654 38 -225 72
-426 76 -445 3 -19 19 -100 35 -180 16 -80 39 -205 50 -279 12 -74 28 -145 36
-158 35 -53 118 -10 96 49 -5 14 -22 104 -36 199 -15 96 -33 203 -40 239 -7
36 -12 66 -11 67 2 2 29 8 62 14 32 6 84 21 115 34 l56 22 38 -181 c21 -99 49
-233 62 -296 14 -63 32 -123 40 -132 34 -38 83 -10 83 48 0 19 -11 87 -25 151
-29 132 -79 379 -89 433 -5 32 -3 37 24 53 30 18 30 18 30 -5 0 -34 37 -161
61 -214 71 -149 239 -236 384 -199 79 21 129 52 191 117 71 75 119 151 164
259 l38 93 7 -50 c13 -91 55 -332 60 -346 4 -10 -31 -48 -103 -111 -149 -131
-230 -221 -261 -286 -22 -47 -26 -70 -26 -141 0 -147 47 -235 151 -286 47 -23
63 -26 117 -21 116 9 221 79 275 182 26 48 27 57 26 190 0 111 -6 168 -28 274
l-27 135 43 35 c76 62 108 101 108 130 0 66 -53 68 -121 4 -27 -25 -51 -44
-54 -41 -8 8 -54 308 -65 423 -5 61 -10 145 -10 188 0 64 -3 80 -20 97 -50 50
-82 14 -119 -135 -76 -303 -164 -479 -282 -564 -112 -81 -264 -47 -335 76 -31
52 -60 149 -70 231 l-6 57 73 50 c146 99 239 215 239 297 0 107 -150 147 -276
73 -80 -47 -134 -153 -142 -281 -5 -80 -7 -86 -34 -106 -38 -26 -42 -20 -58
81 -38 254 -101 741 -107 826 -3 55 -9 107 -14 116 -15 29 -49 30 -77 2z m598
-727 c0 -20 -97 -124 -155 -165 l-48 -34 7 42 c16 101 78 171 152 171 32 0 44
-4 44 -14z m654 -1016 c27 -133 33 -300 12 -355 -29 -74 -120 -134 -205 -135
-80 0 -141 88 -141 200 1 60 19 108 61 160 46 58 241 232 249 223 4 -5 15 -46
24 -93z"/>
<path d="M3823 4920 c-43 -18 -41 -85 3 -96 62 -16 101 40 59 82 -26 26 -30
27 -62 14z"/>
<path d="M4687 3529 c-9 -5 -24 -23 -32 -39 -36 -69 -3 -137 71 -147 36 -5 46
-1 75 25 28 25 34 37 34 72 0 35 -6 47 -33 71 -34 30 -81 38 -115 18z"/>
</g>
</svg>
